<svg width="501" height="500" viewBox="0 0 501 500" fill="none" xmlns="http://www.w3.org/2000/svg">
<g id="Style=Alternate, Color=Dark">
<g id="Group 251">
<path id="Vector" d="M501 120.677V83.9759L492.024 74.8613C376.738 -34.7915 129.889 109.184 46.026 178.559L4.60236 242.674L56.1215 229.948C-22.9931 329.245 5.27944 394.271 8.61278 401.025C16.9287 424.436 35.9305 443.177 66.7465 455.469C90.1492 464.818 116.703 465.964 139.455 464.905C237.814 460.313 353.986 399.002 429.055 333.785L430.809 332.266L445.748 256.927L416.581 273.143C315.305 317.57 233.856 342.231 233.856 342.231C180.531 358.846 156.026 361.545 138.569 357.509L136.451 356.849C131.642 354.983 130.783 350.617 130.783 349.445C130.019 316.094 187.389 244.384 216.278 213.351C243.213 184.419 285.566 152.648 321.382 137.587C345.375 127.483 360.878 123.446 368.135 124.184C366.156 130.391 362.927 138.064 358.179 147.396C358.179 147.396 319.837 223.047 318.127 226.172L501 120.651V120.677Z" fill="#BC945C"/>
<path id="Vector_2" d="M273.309 115.269C240.253 132.639 202.363 167.804 190.479 180.46C93.7951 283.412 26.0694 421.016 237.788 355.113C237.788 355.113 320.08 330.191 422.241 285.287C133.04 529.592 -139.911 427.431 128.682 170.608C104.247 176.189 79.559 181.511 55.4184 188.247C141.425 117.084 377.337 -15.6856 482.649 84.5141L370.132 153.498C418.439 58.863 331.425 81.0679 273.309 115.278" fill="#860038"/>
</g>
</g>
</svg>
