<svg width="500" height="500" viewBox="0 0 500 500" fill="none" xmlns="http://www.w3.org/2000/svg">
<g clip-path="url(#clip0_35_4092)">
<path d="M156.693 400.174H137.483L114.323 492.795H130.565L135.53 471.893H158.516L163.62 492.795H179.853L156.702 400.174H156.693ZM139.471 455.695L147.084 424.54L154.575 455.695H139.471Z" fill="#061922"/>
<path d="M240.425 400.174V492.795H224.227V453.863H203.185V492.795H186.996V400.174H203.185V437.665H224.227V400.174H240.425Z" fill="#061922"/>
<path d="M120.356 416.372H102.717V492.795H86.5188V416.372H68.8799V400.174H120.356V416.372Z" fill="#061922"/>
<path d="M61.5623 400.174V473.525C61.5623 479.054 59.5137 484.158 55.755 487.908C52.0224 491.641 46.9095 493.716 41.38 493.716H27.2741C21.7446 493.716 16.6404 491.65 12.8991 487.908C9.14909 484.158 7.0918 479.054 7.0918 473.525V400.174H23.2724V477.57H45.3817V400.174H61.5623Z" fill="#061922"/>
<path d="M317.474 400.633V473.984C317.474 479.513 315.417 484.617 311.667 488.367C307.926 492.1 302.822 494.175 297.292 494.175H283.186C277.657 494.175 272.552 492.109 268.811 488.367C265.061 484.617 262.995 479.513 262.995 473.984V455.503H279.202V478.176H301.216L301.276 400.633H317.474V400.633Z" fill="#061922"/>
<path d="M365.026 400.633H345.825L322.665 493.254H338.906L343.872 472.352H366.858L371.962 493.254H388.195L365.035 400.633H365.026ZM362.917 456.154H347.813L355.425 424.999L362.917 456.154Z" fill="#061922"/>
<path d="M440.868 416.501L410.981 477.056H440.929V493.254H392.734V477.508L392.778 477.386L422.682 416.831H392.734V400.633H440.929V416.371L440.868 416.501Z" fill="#061922"/>
<path d="M497.049 416.501L467.161 477.056H497.109V493.254H448.906V477.508L448.958 477.386L478.863 416.831H448.906V400.633H497.109V416.371L497.049 416.501Z" fill="#061922"/>
<path d="M500 5L451.103 109.878H255.374L193.698 242.153H138.386C138.811 235.547 140.148 228.958 142.275 222.483C147.587 206.519 157.526 193.359 170.087 183.967C173.386 187.734 176.372 191.806 179.054 196.128C179.471 196.797 180.295 196.727 180.573 196.128C180.573 196.128 180.573 196.128 180.573 196.12L269.714 5H500Z" fill="#061922"/>
<path d="M46.7361 283.152C41.1372 294.315 33.1858 303.803 23.4809 311.06C15.3906 301.72 8.95833 290.652 4.79167 278.152C2.01389 269.801 0.451389 261.346 0 252.961H54.9913C54.2969 263.343 51.5017 273.569 46.7274 283.152" fill="#061922"/>
<path d="M91.302 252.961V344.411C68.8193 343.117 47.4912 333.985 31.085 318.855C41.6145 310.713 50.2343 300.244 56.3801 288.004C61.9443 276.885 65.1127 265.018 65.8332 252.961H91.2933H91.302Z" fill="#061922"/>
<path d="M51.0764 222.491C53.2118 228.95 54.5313 235.556 54.9653 242.161H0C1.17188 220.668 9.54861 200.243 23.4549 184.141C35.9201 193.481 45.7986 206.589 51.0764 222.491" fill="#061922"/>
<path d="M91.3022 150.703V242.153H65.79C65.3473 234.401 63.8456 226.632 61.3369 219.071C55.4689 201.467 44.6876 186.866 31.0244 176.302C40.8508 167.17 52.7171 160 66.2327 155.503C74.5748 152.743 82.9689 151.181 91.3109 150.703" fill="#061922"/>
<path d="M127.561 242.161H102.109V150.711C124.635 151.935 146.007 161.041 162.448 176.145C148.333 186.996 137.76 201.796 132.031 219.079C129.505 226.666 128.021 234.409 127.561 242.161Z" fill="#061922"/>
<path d="M162.457 319.01C152.682 328.047 140.868 335.148 127.448 339.609C119.045 342.405 110.538 343.993 102.109 344.418V252.969H127.517C128.264 265.026 131.432 276.892 136.979 288.012C143.151 300.33 151.866 310.842 162.457 319.01" fill="#061922"/>
<path d="M193.707 252.961C192.509 274.532 184.106 295.036 170.078 311.173C160.304 303.898 152.283 294.367 146.658 283.152C141.858 273.586 139.071 263.334 138.377 252.961H193.707V252.961Z" fill="#061922"/>
</g>
<defs>
<clipPath id="clip0_35_4092">
<rect width="500" height="489.175" fill="white" transform="translate(0 5)"/>
</clipPath>
</defs>
</svg>
